<mxfile host="app.diagrams.net" modified="2024-07-23T12:42:27.493Z" agent="Mozilla/5.0 (Windows NT 10.0; Win64; x64; rv:128.0) Gecko/20100101 Firefox/128.0" etag="biFW-suhqY_CqRp2SLF_" version="24.7.3" type="device">
  <diagram id="C5RBs43oDa-KdzZeNtuy" name="Page-1">
    <mxGraphModel dx="1562" dy="818" grid="1" gridSize="10" guides="1" tooltips="1" connect="1" arrows="1" fold="1" page="1" pageScale="1" pageWidth="1654" pageHeight="1169" math="0" shadow="0">
      <root>
        <mxCell id="WIyWlLk6GJQsqaUBKTNV-0" />
        <mxCell id="WIyWlLk6GJQsqaUBKTNV-1" parent="WIyWlLk6GJQsqaUBKTNV-0" />
        <mxCell id="WIyWlLk6GJQsqaUBKTNV-2" value="" style="rounded=0;html=1;jettySize=auto;orthogonalLoop=1;fontSize=11;endArrow=classic;endFill=1;endSize=8;strokeWidth=1;shadow=0;labelBackgroundColor=none;edgeStyle=orthogonalEdgeStyle;" parent="WIyWlLk6GJQsqaUBKTNV-1" edge="1">
          <mxGeometry relative="1" as="geometry">
            <mxPoint x="220" y="120" as="sourcePoint" />
            <mxPoint x="220" y="170" as="targetPoint" />
          </mxGeometry>
        </mxCell>
        <mxCell id="RTXvJ7lPpeIRNU-uI2Kb-3" style="edgeStyle=orthogonalEdgeStyle;rounded=0;orthogonalLoop=1;jettySize=auto;html=1;exitX=0.5;exitY=1;exitDx=0;exitDy=0;" parent="WIyWlLk6GJQsqaUBKTNV-1" source="RTXvJ7lPpeIRNU-uI2Kb-0" target="RTXvJ7lPpeIRNU-uI2Kb-2" edge="1">
          <mxGeometry relative="1" as="geometry" />
        </mxCell>
        <mxCell id="RTXvJ7lPpeIRNU-uI2Kb-0" value="Convert to binary instructions" style="rounded=1;whiteSpace=wrap;html=1;" parent="WIyWlLk6GJQsqaUBKTNV-1" vertex="1">
          <mxGeometry x="160" y="160" width="120" height="60" as="geometry" />
        </mxCell>
        <mxCell id="RTXvJ7lPpeIRNU-uI2Kb-1" value="Generate test patterns and reference results" style="rounded=1;whiteSpace=wrap;html=1;" parent="WIyWlLk6GJQsqaUBKTNV-1" vertex="1">
          <mxGeometry x="160" y="60" width="120" height="60" as="geometry" />
        </mxCell>
        <mxCell id="RTXvJ7lPpeIRNU-uI2Kb-6" value="" style="edgeStyle=orthogonalEdgeStyle;rounded=0;orthogonalLoop=1;jettySize=auto;html=1;" parent="WIyWlLk6GJQsqaUBKTNV-1" source="RTXvJ7lPpeIRNU-uI2Kb-2" target="RTXvJ7lPpeIRNU-uI2Kb-4" edge="1">
          <mxGeometry relative="1" as="geometry" />
        </mxCell>
        <mxCell id="RTXvJ7lPpeIRNU-uI2Kb-2" value="Save file for sending to EEPROM later" style="rounded=1;whiteSpace=wrap;html=1;" parent="WIyWlLk6GJQsqaUBKTNV-1" vertex="1">
          <mxGeometry x="160" y="270" width="120" height="60" as="geometry" />
        </mxCell>
        <mxCell id="RTXvJ7lPpeIRNU-uI2Kb-7" style="edgeStyle=orthogonalEdgeStyle;rounded=0;orthogonalLoop=1;jettySize=auto;html=1;exitX=0.5;exitY=1;exitDx=0;exitDy=0;" parent="WIyWlLk6GJQsqaUBKTNV-1" source="RTXvJ7lPpeIRNU-uI2Kb-4" edge="1">
          <mxGeometry relative="1" as="geometry">
            <mxPoint x="220" y="480" as="targetPoint" />
          </mxGeometry>
        </mxCell>
        <mxCell id="RTXvJ7lPpeIRNU-uI2Kb-4" value="Connection and powerup of test equipment" style="rounded=1;whiteSpace=wrap;html=1;" parent="WIyWlLk6GJQsqaUBKTNV-1" vertex="1">
          <mxGeometry x="160" y="370" width="120" height="60" as="geometry" />
        </mxCell>
        <mxCell id="RTXvJ7lPpeIRNU-uI2Kb-11" value="" style="edgeStyle=orthogonalEdgeStyle;rounded=0;orthogonalLoop=1;jettySize=auto;html=1;" parent="WIyWlLk6GJQsqaUBKTNV-1" source="RTXvJ7lPpeIRNU-uI2Kb-8" target="RTXvJ7lPpeIRNU-uI2Kb-10" edge="1">
          <mxGeometry relative="1" as="geometry" />
        </mxCell>
        <mxCell id="RTXvJ7lPpeIRNU-uI2Kb-8" value="Communication test with all devices" style="rounded=1;whiteSpace=wrap;html=1;" parent="WIyWlLk6GJQsqaUBKTNV-1" vertex="1">
          <mxGeometry x="160" y="570" width="120" height="60" as="geometry" />
        </mxCell>
        <mxCell id="RTXvJ7lPpeIRNU-uI2Kb-15" value="" style="edgeStyle=orthogonalEdgeStyle;rounded=0;orthogonalLoop=1;jettySize=auto;html=1;" parent="WIyWlLk6GJQsqaUBKTNV-1" source="RTXvJ7lPpeIRNU-uI2Kb-10" target="RTXvJ7lPpeIRNU-uI2Kb-14" edge="1">
          <mxGeometry relative="1" as="geometry" />
        </mxCell>
        <mxCell id="RTXvJ7lPpeIRNU-uI2Kb-16" value="No" style="edgeLabel;html=1;align=center;verticalAlign=middle;resizable=0;points=[];fontSize=14;" parent="RTXvJ7lPpeIRNU-uI2Kb-15" vertex="1" connectable="0">
          <mxGeometry x="-0.0286" y="-1" relative="1" as="geometry">
            <mxPoint x="-4" y="-2" as="offset" />
          </mxGeometry>
        </mxCell>
        <mxCell id="QRk_h_CeB-T_0vp3xRK9-3" style="edgeStyle=orthogonalEdgeStyle;rounded=0;orthogonalLoop=1;jettySize=auto;html=1;exitX=0.5;exitY=1;exitDx=0;exitDy=0;entryX=0;entryY=0.5;entryDx=0;entryDy=0;" edge="1" parent="WIyWlLk6GJQsqaUBKTNV-1" source="RTXvJ7lPpeIRNU-uI2Kb-10" target="QRk_h_CeB-T_0vp3xRK9-2">
          <mxGeometry relative="1" as="geometry">
            <Array as="points">
              <mxPoint x="220" y="770" />
              <mxPoint x="490" y="770" />
              <mxPoint x="490" y="90" />
            </Array>
          </mxGeometry>
        </mxCell>
        <mxCell id="QRk_h_CeB-T_0vp3xRK9-4" value="Yes" style="edgeLabel;html=1;align=center;verticalAlign=middle;resizable=0;points=[];fontSize=14;" vertex="1" connectable="0" parent="QRk_h_CeB-T_0vp3xRK9-3">
          <mxGeometry x="-0.2" y="-1" relative="1" as="geometry">
            <mxPoint x="-231" y="94" as="offset" />
          </mxGeometry>
        </mxCell>
        <mxCell id="RTXvJ7lPpeIRNU-uI2Kb-10" value="All devices connected?" style="rhombus;whiteSpace=wrap;html=1;" parent="WIyWlLk6GJQsqaUBKTNV-1" vertex="1">
          <mxGeometry x="165" y="675" width="110" height="75" as="geometry" />
        </mxCell>
        <mxCell id="RTXvJ7lPpeIRNU-uI2Kb-17" style="edgeStyle=orthogonalEdgeStyle;rounded=0;orthogonalLoop=1;jettySize=auto;html=1;exitX=0.5;exitY=0;exitDx=0;exitDy=0;entryX=1;entryY=0.5;entryDx=0;entryDy=0;" parent="WIyWlLk6GJQsqaUBKTNV-1" source="RTXvJ7lPpeIRNU-uI2Kb-14" target="RTXvJ7lPpeIRNU-uI2Kb-4" edge="1">
          <mxGeometry relative="1" as="geometry" />
        </mxCell>
        <mxCell id="RTXvJ7lPpeIRNU-uI2Kb-14" value="Raise &#39;SerialDeviceConnection&#39; Error" style="ellipse;whiteSpace=wrap;html=1;" parent="WIyWlLk6GJQsqaUBKTNV-1" vertex="1">
          <mxGeometry x="328" y="672.5" width="150" height="80" as="geometry" />
        </mxCell>
        <mxCell id="QRk_h_CeB-T_0vp3xRK9-1" style="edgeStyle=orthogonalEdgeStyle;rounded=0;orthogonalLoop=1;jettySize=auto;html=1;exitX=0.5;exitY=1;exitDx=0;exitDy=0;entryX=0.5;entryY=0;entryDx=0;entryDy=0;" edge="1" parent="WIyWlLk6GJQsqaUBKTNV-1" source="QRk_h_CeB-T_0vp3xRK9-0" target="RTXvJ7lPpeIRNU-uI2Kb-8">
          <mxGeometry relative="1" as="geometry" />
        </mxCell>
        <mxCell id="QRk_h_CeB-T_0vp3xRK9-0" value="Instantiate test equipment device classes" style="rounded=1;whiteSpace=wrap;html=1;" vertex="1" parent="WIyWlLk6GJQsqaUBKTNV-1">
          <mxGeometry x="160" y="470" width="120" height="60" as="geometry" />
        </mxCell>
        <mxCell id="QRk_h_CeB-T_0vp3xRK9-13" value="" style="edgeStyle=orthogonalEdgeStyle;rounded=0;orthogonalLoop=1;jettySize=auto;html=1;" edge="1" parent="WIyWlLk6GJQsqaUBKTNV-1" source="QRk_h_CeB-T_0vp3xRK9-2" target="QRk_h_CeB-T_0vp3xRK9-12">
          <mxGeometry relative="1" as="geometry" />
        </mxCell>
        <mxCell id="QRk_h_CeB-T_0vp3xRK9-2" value="Connection and powerup of Test Board" style="rounded=1;whiteSpace=wrap;html=1;" vertex="1" parent="WIyWlLk6GJQsqaUBKTNV-1">
          <mxGeometry x="533" y="60" width="120" height="60" as="geometry" />
        </mxCell>
        <mxCell id="QRk_h_CeB-T_0vp3xRK9-11" value="" style="edgeStyle=orthogonalEdgeStyle;rounded=0;orthogonalLoop=1;jettySize=auto;html=1;" edge="1" parent="WIyWlLk6GJQsqaUBKTNV-1" source="QRk_h_CeB-T_0vp3xRK9-10" target="RTXvJ7lPpeIRNU-uI2Kb-1">
          <mxGeometry relative="1" as="geometry" />
        </mxCell>
        <mxCell id="QRk_h_CeB-T_0vp3xRK9-10" value="Start" style="rounded=0;whiteSpace=wrap;html=1;dashed=1;dashPattern=1 2;strokeWidth=2;" vertex="1" parent="WIyWlLk6GJQsqaUBKTNV-1">
          <mxGeometry x="60" y="75" width="60" height="30" as="geometry" />
        </mxCell>
        <mxCell id="QRk_h_CeB-T_0vp3xRK9-24" value="" style="edgeStyle=orthogonalEdgeStyle;rounded=0;orthogonalLoop=1;jettySize=auto;html=1;" edge="1" parent="WIyWlLk6GJQsqaUBKTNV-1" source="QRk_h_CeB-T_0vp3xRK9-12" target="QRk_h_CeB-T_0vp3xRK9-23">
          <mxGeometry relative="1" as="geometry" />
        </mxCell>
        <mxCell id="QRk_h_CeB-T_0vp3xRK9-12" value="Instantiate TestBoard class" style="rounded=1;whiteSpace=wrap;html=1;" vertex="1" parent="WIyWlLk6GJQsqaUBKTNV-1">
          <mxGeometry x="533" y="170" width="120" height="60" as="geometry" />
        </mxCell>
        <mxCell id="QRk_h_CeB-T_0vp3xRK9-20" value="" style="edgeStyle=orthogonalEdgeStyle;rounded=0;orthogonalLoop=1;jettySize=auto;html=1;" edge="1" parent="WIyWlLk6GJQsqaUBKTNV-1" source="QRk_h_CeB-T_0vp3xRK9-14" target="QRk_h_CeB-T_0vp3xRK9-18">
          <mxGeometry relative="1" as="geometry" />
        </mxCell>
        <mxCell id="QRk_h_CeB-T_0vp3xRK9-22" value="No" style="edgeLabel;html=1;align=center;verticalAlign=middle;resizable=0;points=[];fontSize=14;" vertex="1" connectable="0" parent="QRk_h_CeB-T_0vp3xRK9-20">
          <mxGeometry x="-0.1154" relative="1" as="geometry">
            <mxPoint x="-1" as="offset" />
          </mxGeometry>
        </mxCell>
        <mxCell id="QRk_h_CeB-T_0vp3xRK9-27" value="" style="edgeStyle=orthogonalEdgeStyle;rounded=0;orthogonalLoop=1;jettySize=auto;html=1;" edge="1" parent="WIyWlLk6GJQsqaUBKTNV-1" source="QRk_h_CeB-T_0vp3xRK9-14" target="QRk_h_CeB-T_0vp3xRK9-26">
          <mxGeometry relative="1" as="geometry" />
        </mxCell>
        <mxCell id="QRk_h_CeB-T_0vp3xRK9-29" value="Yes" style="edgeLabel;html=1;align=center;verticalAlign=middle;resizable=0;points=[];fontSize=14;" vertex="1" connectable="0" parent="QRk_h_CeB-T_0vp3xRK9-27">
          <mxGeometry x="-0.4667" y="-1" relative="1" as="geometry">
            <mxPoint y="5" as="offset" />
          </mxGeometry>
        </mxCell>
        <mxCell id="QRk_h_CeB-T_0vp3xRK9-14" value="Is the board connected?" style="rhombus;whiteSpace=wrap;html=1;" vertex="1" parent="WIyWlLk6GJQsqaUBKTNV-1">
          <mxGeometry x="538" y="390" width="110" height="75" as="geometry" />
        </mxCell>
        <mxCell id="QRk_h_CeB-T_0vp3xRK9-19" style="edgeStyle=orthogonalEdgeStyle;rounded=0;orthogonalLoop=1;jettySize=auto;html=1;exitX=0.5;exitY=0;exitDx=0;exitDy=0;entryX=1;entryY=0.5;entryDx=0;entryDy=0;" edge="1" parent="WIyWlLk6GJQsqaUBKTNV-1" source="QRk_h_CeB-T_0vp3xRK9-18" target="QRk_h_CeB-T_0vp3xRK9-2">
          <mxGeometry relative="1" as="geometry" />
        </mxCell>
        <mxCell id="QRk_h_CeB-T_0vp3xRK9-18" value="Raise &#39;BoardConnection&#39; Error" style="ellipse;whiteSpace=wrap;html=1;" vertex="1" parent="WIyWlLk6GJQsqaUBKTNV-1">
          <mxGeometry x="710" y="388" width="150" height="80" as="geometry" />
        </mxCell>
        <mxCell id="QRk_h_CeB-T_0vp3xRK9-25" value="" style="edgeStyle=orthogonalEdgeStyle;rounded=0;orthogonalLoop=1;jettySize=auto;html=1;" edge="1" parent="WIyWlLk6GJQsqaUBKTNV-1" source="QRk_h_CeB-T_0vp3xRK9-23" target="QRk_h_CeB-T_0vp3xRK9-14">
          <mxGeometry relative="1" as="geometry" />
        </mxCell>
        <mxCell id="QRk_h_CeB-T_0vp3xRK9-23" value="Communication test with the board" style="rounded=1;whiteSpace=wrap;html=1;" vertex="1" parent="WIyWlLk6GJQsqaUBKTNV-1">
          <mxGeometry x="533" y="280" width="120" height="60" as="geometry" />
        </mxCell>
        <mxCell id="QRk_h_CeB-T_0vp3xRK9-31" value="" style="edgeStyle=orthogonalEdgeStyle;rounded=0;orthogonalLoop=1;jettySize=auto;html=1;" edge="1" parent="WIyWlLk6GJQsqaUBKTNV-1" source="QRk_h_CeB-T_0vp3xRK9-26" target="QRk_h_CeB-T_0vp3xRK9-28">
          <mxGeometry relative="1" as="geometry" />
        </mxCell>
        <mxCell id="QRk_h_CeB-T_0vp3xRK9-26" value="Few seconds delay for temps and power to stabilise" style="rounded=0;whiteSpace=wrap;html=1;" vertex="1" parent="WIyWlLk6GJQsqaUBKTNV-1">
          <mxGeometry x="518" y="510" width="150" height="60" as="geometry" />
        </mxCell>
        <mxCell id="QRk_h_CeB-T_0vp3xRK9-33" value="" style="edgeStyle=orthogonalEdgeStyle;rounded=0;orthogonalLoop=1;jettySize=auto;html=1;" edge="1" parent="WIyWlLk6GJQsqaUBKTNV-1" source="QRk_h_CeB-T_0vp3xRK9-28" target="QRk_h_CeB-T_0vp3xRK9-32">
          <mxGeometry relative="1" as="geometry" />
        </mxCell>
        <mxCell id="QRk_h_CeB-T_0vp3xRK9-28" value="&lt;font style=&quot;font-size: 12px;&quot;&gt;Take reference measurements (idle power consumption, idle temp, etc.)&lt;/font&gt;" style="rounded=1;whiteSpace=wrap;html=1;" vertex="1" parent="WIyWlLk6GJQsqaUBKTNV-1">
          <mxGeometry x="524.5" y="590" width="137" height="70" as="geometry" />
        </mxCell>
        <mxCell id="QRk_h_CeB-T_0vp3xRK9-35" style="edgeStyle=orthogonalEdgeStyle;rounded=0;orthogonalLoop=1;jettySize=auto;html=1;exitX=1;exitY=0.5;exitDx=0;exitDy=0;entryX=0;entryY=0.5;entryDx=0;entryDy=0;" edge="1" parent="WIyWlLk6GJQsqaUBKTNV-1" source="QRk_h_CeB-T_0vp3xRK9-32" target="QRk_h_CeB-T_0vp3xRK9-34">
          <mxGeometry relative="1" as="geometry">
            <Array as="points">
              <mxPoint x="880" y="713" />
              <mxPoint x="880" y="90" />
            </Array>
          </mxGeometry>
        </mxCell>
        <mxCell id="QRk_h_CeB-T_0vp3xRK9-32" value="Use component select method to change to EEPROM" style="rounded=1;whiteSpace=wrap;html=1;" vertex="1" parent="WIyWlLk6GJQsqaUBKTNV-1">
          <mxGeometry x="533" y="683" width="120" height="60" as="geometry" />
        </mxCell>
        <mxCell id="QRk_h_CeB-T_0vp3xRK9-37" value="" style="edgeStyle=orthogonalEdgeStyle;rounded=0;orthogonalLoop=1;jettySize=auto;html=1;" edge="1" parent="WIyWlLk6GJQsqaUBKTNV-1" source="QRk_h_CeB-T_0vp3xRK9-34" target="QRk_h_CeB-T_0vp3xRK9-36">
          <mxGeometry relative="1" as="geometry" />
        </mxCell>
        <mxCell id="QRk_h_CeB-T_0vp3xRK9-34" value="Read test instruction from file and send to EEPROM" style="rounded=1;whiteSpace=wrap;html=1;" vertex="1" parent="WIyWlLk6GJQsqaUBKTNV-1">
          <mxGeometry x="910" y="60" width="120" height="60" as="geometry" />
        </mxCell>
        <mxCell id="QRk_h_CeB-T_0vp3xRK9-41" value="" style="edgeStyle=orthogonalEdgeStyle;rounded=0;orthogonalLoop=1;jettySize=auto;html=1;" edge="1" parent="WIyWlLk6GJQsqaUBKTNV-1" source="QRk_h_CeB-T_0vp3xRK9-36" target="QRk_h_CeB-T_0vp3xRK9-38">
          <mxGeometry relative="1" as="geometry" />
        </mxCell>
        <mxCell id="QRk_h_CeB-T_0vp3xRK9-44" value="Yes" style="edgeLabel;html=1;align=center;verticalAlign=middle;resizable=0;points=[];fontSize=14;" vertex="1" connectable="0" parent="QRk_h_CeB-T_0vp3xRK9-41">
          <mxGeometry x="-0.625" y="4" relative="1" as="geometry">
            <mxPoint x="-5" y="8" as="offset" />
          </mxGeometry>
        </mxCell>
        <mxCell id="QRk_h_CeB-T_0vp3xRK9-46" style="edgeStyle=orthogonalEdgeStyle;rounded=0;orthogonalLoop=1;jettySize=auto;html=1;exitX=1;exitY=0.5;exitDx=0;exitDy=0;entryX=1;entryY=0.75;entryDx=0;entryDy=0;" edge="1" parent="WIyWlLk6GJQsqaUBKTNV-1" source="QRk_h_CeB-T_0vp3xRK9-36" target="QRk_h_CeB-T_0vp3xRK9-34">
          <mxGeometry relative="1" as="geometry">
            <Array as="points">
              <mxPoint x="1080" y="190" />
              <mxPoint x="1080" y="105" />
            </Array>
          </mxGeometry>
        </mxCell>
        <mxCell id="QRk_h_CeB-T_0vp3xRK9-47" value="No" style="edgeLabel;html=1;align=center;verticalAlign=middle;resizable=0;points=[];fontSize=14;" vertex="1" connectable="0" parent="QRk_h_CeB-T_0vp3xRK9-46">
          <mxGeometry x="-0.715" y="-1" relative="1" as="geometry">
            <mxPoint y="-1" as="offset" />
          </mxGeometry>
        </mxCell>
        <mxCell id="QRk_h_CeB-T_0vp3xRK9-36" value="&lt;div&gt;EEPROM&lt;/div&gt;&lt;div&gt;received?&lt;br&gt;&lt;/div&gt;" style="rhombus;whiteSpace=wrap;html=1;" vertex="1" parent="WIyWlLk6GJQsqaUBKTNV-1">
          <mxGeometry x="915" y="152" width="110" height="75" as="geometry" />
        </mxCell>
        <mxCell id="QRk_h_CeB-T_0vp3xRK9-40" value="" style="edgeStyle=orthogonalEdgeStyle;rounded=0;orthogonalLoop=1;jettySize=auto;html=1;" edge="1" parent="WIyWlLk6GJQsqaUBKTNV-1" source="QRk_h_CeB-T_0vp3xRK9-38" target="QRk_h_CeB-T_0vp3xRK9-39">
          <mxGeometry relative="1" as="geometry" />
        </mxCell>
        <mxCell id="QRk_h_CeB-T_0vp3xRK9-38" value="Increment line" style="rounded=1;whiteSpace=wrap;html=1;" vertex="1" parent="WIyWlLk6GJQsqaUBKTNV-1">
          <mxGeometry x="910" y="270" width="120" height="60" as="geometry" />
        </mxCell>
        <mxCell id="QRk_h_CeB-T_0vp3xRK9-42" style="edgeStyle=orthogonalEdgeStyle;rounded=0;orthogonalLoop=1;jettySize=auto;html=1;exitX=1;exitY=0.5;exitDx=0;exitDy=0;entryX=1;entryY=0.25;entryDx=0;entryDy=0;" edge="1" parent="WIyWlLk6GJQsqaUBKTNV-1" source="QRk_h_CeB-T_0vp3xRK9-39" target="QRk_h_CeB-T_0vp3xRK9-34">
          <mxGeometry relative="1" as="geometry">
            <mxPoint x="1140" y="400" as="targetPoint" />
            <Array as="points">
              <mxPoint x="1110" y="390" />
              <mxPoint x="1110" y="75" />
            </Array>
          </mxGeometry>
        </mxCell>
        <mxCell id="QRk_h_CeB-T_0vp3xRK9-43" value="No" style="edgeLabel;html=1;align=center;verticalAlign=middle;resizable=0;points=[];fontSize=14;" vertex="1" connectable="0" parent="QRk_h_CeB-T_0vp3xRK9-42">
          <mxGeometry x="-0.8908" y="3" relative="1" as="geometry">
            <mxPoint x="9" y="2" as="offset" />
          </mxGeometry>
        </mxCell>
        <mxCell id="QRk_h_CeB-T_0vp3xRK9-49" value="" style="edgeStyle=orthogonalEdgeStyle;rounded=0;orthogonalLoop=1;jettySize=auto;html=1;" edge="1" parent="WIyWlLk6GJQsqaUBKTNV-1" source="QRk_h_CeB-T_0vp3xRK9-39" target="QRk_h_CeB-T_0vp3xRK9-48">
          <mxGeometry relative="1" as="geometry" />
        </mxCell>
        <mxCell id="QRk_h_CeB-T_0vp3xRK9-50" value="Yes" style="edgeLabel;html=1;align=center;verticalAlign=middle;resizable=0;points=[];fontSize=14;" vertex="1" connectable="0" parent="QRk_h_CeB-T_0vp3xRK9-49">
          <mxGeometry x="-0.122" y="-2" relative="1" as="geometry">
            <mxPoint x="1" y="-2" as="offset" />
          </mxGeometry>
        </mxCell>
        <mxCell id="QRk_h_CeB-T_0vp3xRK9-39" value="Reached EOF?" style="rhombus;whiteSpace=wrap;html=1;" vertex="1" parent="WIyWlLk6GJQsqaUBKTNV-1">
          <mxGeometry x="915" y="352" width="110" height="75" as="geometry" />
        </mxCell>
        <mxCell id="QRk_h_CeB-T_0vp3xRK9-52" value="" style="edgeStyle=orthogonalEdgeStyle;rounded=0;orthogonalLoop=1;jettySize=auto;html=1;" edge="1" parent="WIyWlLk6GJQsqaUBKTNV-1" source="QRk_h_CeB-T_0vp3xRK9-48" target="QRk_h_CeB-T_0vp3xRK9-51">
          <mxGeometry relative="1" as="geometry" />
        </mxCell>
        <mxCell id="QRk_h_CeB-T_0vp3xRK9-48" value="Select the power-on reset component and change EEPROM to read mode" style="rounded=1;whiteSpace=wrap;html=1;" vertex="1" parent="WIyWlLk6GJQsqaUBKTNV-1">
          <mxGeometry x="905" y="469" width="130" height="68" as="geometry" />
        </mxCell>
        <mxCell id="QRk_h_CeB-T_0vp3xRK9-54" value="" style="edgeStyle=orthogonalEdgeStyle;rounded=0;orthogonalLoop=1;jettySize=auto;html=1;" edge="1" parent="WIyWlLk6GJQsqaUBKTNV-1" source="QRk_h_CeB-T_0vp3xRK9-51" target="QRk_h_CeB-T_0vp3xRK9-53">
          <mxGeometry relative="1" as="geometry" />
        </mxCell>
        <mxCell id="QRk_h_CeB-T_0vp3xRK9-51" value="Disable power-on reset" style="rounded=1;whiteSpace=wrap;html=1;" vertex="1" parent="WIyWlLk6GJQsqaUBKTNV-1">
          <mxGeometry x="910" y="570" width="120" height="60" as="geometry" />
        </mxCell>
        <mxCell id="QRk_h_CeB-T_0vp3xRK9-56" value="" style="edgeStyle=orthogonalEdgeStyle;rounded=0;orthogonalLoop=1;jettySize=auto;html=1;" edge="1" parent="WIyWlLk6GJQsqaUBKTNV-1" source="QRk_h_CeB-T_0vp3xRK9-53" target="QRk_h_CeB-T_0vp3xRK9-55">
          <mxGeometry relative="1" as="geometry" />
        </mxCell>
        <mxCell id="QRk_h_CeB-T_0vp3xRK9-53" value="Select the JTAG bus from the DUT" style="rounded=1;whiteSpace=wrap;html=1;" vertex="1" parent="WIyWlLk6GJQsqaUBKTNV-1">
          <mxGeometry x="910" y="660" width="120" height="60" as="geometry" />
        </mxCell>
        <mxCell id="QRk_h_CeB-T_0vp3xRK9-58" style="edgeStyle=orthogonalEdgeStyle;rounded=0;orthogonalLoop=1;jettySize=auto;html=1;exitX=1;exitY=0.5;exitDx=0;exitDy=0;entryX=0;entryY=0.5;entryDx=0;entryDy=0;" edge="1" parent="WIyWlLk6GJQsqaUBKTNV-1" source="QRk_h_CeB-T_0vp3xRK9-55" target="QRk_h_CeB-T_0vp3xRK9-57">
          <mxGeometry relative="1" as="geometry">
            <Array as="points">
              <mxPoint x="1140" y="783" />
              <mxPoint x="1140" y="90" />
            </Array>
          </mxGeometry>
        </mxCell>
        <mxCell id="QRk_h_CeB-T_0vp3xRK9-59" value="DUT Ready" style="edgeLabel;html=1;align=center;verticalAlign=middle;resizable=0;points=[];fontSize=14;" vertex="1" connectable="0" parent="QRk_h_CeB-T_0vp3xRK9-58">
          <mxGeometry x="-0.8655" y="-3" relative="1" as="geometry">
            <mxPoint y="-3" as="offset" />
          </mxGeometry>
        </mxCell>
        <mxCell id="QRk_h_CeB-T_0vp3xRK9-55" value="Wait for ready message from DUT" style="rounded=1;whiteSpace=wrap;html=1;" vertex="1" parent="WIyWlLk6GJQsqaUBKTNV-1">
          <mxGeometry x="910" y="752.5" width="120" height="60" as="geometry" />
        </mxCell>
        <mxCell id="QRk_h_CeB-T_0vp3xRK9-61" value="" style="edgeStyle=orthogonalEdgeStyle;rounded=0;orthogonalLoop=1;jettySize=auto;html=1;" edge="1" parent="WIyWlLk6GJQsqaUBKTNV-1" source="QRk_h_CeB-T_0vp3xRK9-57" target="QRk_h_CeB-T_0vp3xRK9-60">
          <mxGeometry relative="1" as="geometry" />
        </mxCell>
        <mxCell id="QRk_h_CeB-T_0vp3xRK9-57" value="Send start command to DUT, log time and current PC" style="rounded=1;whiteSpace=wrap;html=1;" vertex="1" parent="WIyWlLk6GJQsqaUBKTNV-1">
          <mxGeometry x="1170" y="60" width="120" height="60" as="geometry" />
        </mxCell>
        <mxCell id="QRk_h_CeB-T_0vp3xRK9-63" value="" style="edgeStyle=orthogonalEdgeStyle;rounded=0;orthogonalLoop=1;jettySize=auto;html=1;" edge="1" parent="WIyWlLk6GJQsqaUBKTNV-1" source="QRk_h_CeB-T_0vp3xRK9-60" target="QRk_h_CeB-T_0vp3xRK9-62">
          <mxGeometry relative="1" as="geometry" />
        </mxCell>
        <mxCell id="QRk_h_CeB-T_0vp3xRK9-60" value="Start measuring voltage, current, power and temp" style="rounded=1;whiteSpace=wrap;html=1;" vertex="1" parent="WIyWlLk6GJQsqaUBKTNV-1">
          <mxGeometry x="1170" y="150" width="120" height="60" as="geometry" />
        </mxCell>
        <mxCell id="QRk_h_CeB-T_0vp3xRK9-65" value="" style="edgeStyle=orthogonalEdgeStyle;rounded=0;orthogonalLoop=1;jettySize=auto;html=1;" edge="1" parent="WIyWlLk6GJQsqaUBKTNV-1" source="QRk_h_CeB-T_0vp3xRK9-62" target="QRk_h_CeB-T_0vp3xRK9-64">
          <mxGeometry relative="1" as="geometry" />
        </mxCell>
        <mxCell id="QRk_h_CeB-T_0vp3xRK9-62" value="&lt;div&gt;Count clock cycles until result is received from DUT&lt;br&gt;&lt;/div&gt;" style="rounded=1;whiteSpace=wrap;html=1;" vertex="1" parent="WIyWlLk6GJQsqaUBKTNV-1">
          <mxGeometry x="1170" y="240" width="120" height="60" as="geometry" />
        </mxCell>
        <mxCell id="QRk_h_CeB-T_0vp3xRK9-72" value="" style="edgeStyle=orthogonalEdgeStyle;rounded=0;orthogonalLoop=1;jettySize=auto;html=1;" edge="1" parent="WIyWlLk6GJQsqaUBKTNV-1" source="QRk_h_CeB-T_0vp3xRK9-64" target="QRk_h_CeB-T_0vp3xRK9-71">
          <mxGeometry relative="1" as="geometry" />
        </mxCell>
        <mxCell id="QRk_h_CeB-T_0vp3xRK9-64" value="Append results and measurements to files" style="rounded=1;whiteSpace=wrap;html=1;" vertex="1" parent="WIyWlLk6GJQsqaUBKTNV-1">
          <mxGeometry x="1170" y="340" width="120" height="60" as="geometry" />
        </mxCell>
        <mxCell id="QRk_h_CeB-T_0vp3xRK9-73" style="edgeStyle=orthogonalEdgeStyle;rounded=0;orthogonalLoop=1;jettySize=auto;html=1;exitX=1;exitY=0.5;exitDx=0;exitDy=0;entryX=1;entryY=0.5;entryDx=0;entryDy=0;" edge="1" parent="WIyWlLk6GJQsqaUBKTNV-1" source="QRk_h_CeB-T_0vp3xRK9-71" target="QRk_h_CeB-T_0vp3xRK9-57">
          <mxGeometry relative="1" as="geometry">
            <Array as="points">
              <mxPoint x="1370" y="468" />
              <mxPoint x="1370" y="90" />
            </Array>
          </mxGeometry>
        </mxCell>
        <mxCell id="QRk_h_CeB-T_0vp3xRK9-74" value="No" style="edgeLabel;html=1;align=center;verticalAlign=middle;resizable=0;points=[];fontSize=14;" vertex="1" connectable="0" parent="QRk_h_CeB-T_0vp3xRK9-73">
          <mxGeometry x="-0.8415" y="-2" relative="1" as="geometry">
            <mxPoint x="-1" y="-2" as="offset" />
          </mxGeometry>
        </mxCell>
        <mxCell id="QRk_h_CeB-T_0vp3xRK9-76" value="" style="edgeStyle=orthogonalEdgeStyle;rounded=0;orthogonalLoop=1;jettySize=auto;html=1;" edge="1" parent="WIyWlLk6GJQsqaUBKTNV-1" source="QRk_h_CeB-T_0vp3xRK9-71" target="QRk_h_CeB-T_0vp3xRK9-75">
          <mxGeometry relative="1" as="geometry" />
        </mxCell>
        <mxCell id="QRk_h_CeB-T_0vp3xRK9-79" value="Yes" style="edgeLabel;html=1;align=center;verticalAlign=middle;resizable=0;points=[];fontSize=14;" vertex="1" connectable="0" parent="QRk_h_CeB-T_0vp3xRK9-76">
          <mxGeometry x="-0.1692" relative="1" as="geometry">
            <mxPoint as="offset" />
          </mxGeometry>
        </mxCell>
        <mxCell id="QRk_h_CeB-T_0vp3xRK9-71" value="Has &#39;Done&#39; risen?" style="rhombus;whiteSpace=wrap;html=1;" vertex="1" parent="WIyWlLk6GJQsqaUBKTNV-1">
          <mxGeometry x="1175" y="430" width="110" height="75" as="geometry" />
        </mxCell>
        <mxCell id="QRk_h_CeB-T_0vp3xRK9-78" value="" style="edgeStyle=orthogonalEdgeStyle;rounded=0;orthogonalLoop=1;jettySize=auto;html=1;" edge="1" parent="WIyWlLk6GJQsqaUBKTNV-1" source="QRk_h_CeB-T_0vp3xRK9-75" target="QRk_h_CeB-T_0vp3xRK9-77">
          <mxGeometry relative="1" as="geometry" />
        </mxCell>
        <mxCell id="QRk_h_CeB-T_0vp3xRK9-75" value="Turn off the test board" style="rounded=1;whiteSpace=wrap;html=1;" vertex="1" parent="WIyWlLk6GJQsqaUBKTNV-1">
          <mxGeometry x="1170" y="570" width="120" height="60" as="geometry" />
        </mxCell>
        <mxCell id="QRk_h_CeB-T_0vp3xRK9-77" value="Finish" style="rounded=0;whiteSpace=wrap;html=1;dashed=1;dashPattern=1 2;strokeWidth=2;" vertex="1" parent="WIyWlLk6GJQsqaUBKTNV-1">
          <mxGeometry x="1200" y="683" width="60" height="30" as="geometry" />
        </mxCell>
      </root>
    </mxGraphModel>
  </diagram>
</mxfile>
